<mxfile host="app.diagrams.net" modified="2022-03-27T12:59:05.204Z" agent="5.0 (Macintosh; Intel Mac OS X 10_15_7) AppleWebKit/537.36 (KHTML, like Gecko) Chrome/99.0.4844.74 Safari/537.36" etag="hD6MvRR6EGRg9HX2u2yb" version="17.2.4" type="github">
  <diagram id="QGeDyshc4Kn8E6alLfeR" name="Page-1">
    <mxGraphModel dx="1237" dy="771" grid="1" gridSize="10" guides="1" tooltips="1" connect="1" arrows="1" fold="1" page="1" pageScale="1" pageWidth="850" pageHeight="1100" math="0" shadow="0">
      <root>
        <mxCell id="0" />
        <mxCell id="1" parent="0" />
        <mxCell id="m4gN_JPqydLDJMH3N-V2-1" value="" style="ellipse;whiteSpace=wrap;html=1;aspect=fixed;" vertex="1" parent="1">
          <mxGeometry x="340" y="250" width="80" height="80" as="geometry" />
        </mxCell>
      </root>
    </mxGraphModel>
  </diagram>
</mxfile>
